<svg width="44" height="27" viewBox="0 0 44 27" fill="none" xmlns="http://www.w3.org/2000/svg">
<rect x="1" y="1" width="42" height="25" rx="6" stroke="#3498DB" stroke-width="2"/>
<path d="M22.3604 7.01122C19.6282 7.1902 16.9077 8.17949 14.1794 9.9909C12.824 10.8897 11.4159 12.056 10.3574 13.1554L10 13.5272L10.1953 13.7396C10.4687 14.0366 11.3339 14.8587 11.8338 15.3012C14.6578 17.7931 17.6244 19.339 20.5148 19.8228C21.3409 19.9605 21.8038 19.9998 22.6728 19.9998C23.4208 20.0018 23.6825 19.9861 24.3231 19.9035C26.2878 19.6498 28.1997 18.9555 30.1039 17.8029C31.8147 16.7684 33.5548 15.2717 34.8477 13.7219L35 13.539L34.9629 13.4957C34.9414 13.4721 34.8164 13.3246 34.6817 13.1672C32.5119 10.6124 30.0473 8.76362 27.565 7.82154C26.4401 7.39671 25.3953 7.15283 24.1962 7.03876C23.8153 7.00336 22.7373 6.98762 22.3604 7.01122ZM23.1826 8.15195C24.2801 8.26209 25.323 8.69282 26.1784 9.38513C26.776 9.86895 27.274 10.4944 27.6119 11.1867C27.7896 11.5486 27.8795 11.7846 27.9771 12.1426C28.2427 13.1181 28.2173 14.1742 27.9049 15.134C27.7467 15.6179 27.5553 16.0151 27.2721 16.4419C27.0592 16.7625 26.8952 16.9612 26.5905 17.268C26.1374 17.7243 25.7117 18.0291 25.1238 18.3202C24.577 18.5916 24.0497 18.7568 23.415 18.8532C23.0322 18.9122 22.2822 18.9181 21.9014 18.863C20.5734 18.6782 19.468 18.1196 18.5716 17.1873C17.7474 16.3279 17.2612 15.2933 17.1147 14.0916C17.0756 13.7651 17.0854 13.0748 17.1362 12.7542C17.4467 10.7304 18.8528 9.07831 20.8273 8.41747C21.253 8.27586 21.6143 8.19916 22.1065 8.14605C22.2627 8.12835 22.9951 8.13425 23.1826 8.15195Z" fill="#3498DB"/>
<path d="M22.3604 9.47167C21.628 9.53264 20.9113 9.81585 20.3391 10.2662C20.1692 10.4 19.8762 10.693 19.7376 10.8681C19.5227 11.1356 19.2923 11.5506 19.179 11.8751C19.0247 12.3176 18.972 12.6657 18.9876 13.1672C19.0013 13.6432 19.0579 13.9245 19.22 14.3375C19.761 15.7201 21.1398 16.6465 22.6573 16.6484C23.5048 16.6484 24.3427 16.3613 25.0067 15.8381C25.1629 15.7162 25.4793 15.3936 25.6121 15.2225C25.9675 14.7662 26.2117 14.2155 26.3132 13.6412L26.3249 13.5744L26.2429 13.653C25.9656 13.9087 25.6199 14.0936 25.2469 14.1841C25.1375 14.2116 25.0243 14.2195 24.7626 14.2195C24.452 14.2195 24.4032 14.2136 24.2255 14.1644C23.4814 13.9599 22.9092 13.3875 22.7276 12.6638C22.6651 12.4179 22.6651 11.9341 22.7276 11.7079C22.8272 11.344 23.0088 11.0235 23.2627 10.7678C23.4384 10.5908 23.5966 10.4767 23.8193 10.3666C24.0927 10.2308 24.329 10.1679 24.6512 10.1443L24.8251 10.1325L24.6922 10.046C24.0146 9.61524 23.1592 9.40283 22.3604 9.47167Z" fill="#3498DB"/>
</svg>
